<svg width="48" height="48" viewBox="0 0 48 48" fill="none" xmlns="http://www.w3.org/2000/svg">
<g clip-path="url(#clip0_9_2)">
<mask id="mask0_9_2" style="mask-type:luminance" maskUnits="userSpaceOnUse" x="1" y="1" width="46" height="46">
<path d="M6.25 1.25C4.92392 1.25 3.65215 1.77679 2.71447 2.71447C1.77678 3.65215 1.25 4.92392 1.25 6.25V41.25C1.25 42.5761 1.77678 43.8479 2.71447 44.7855C3.65215 45.7232 4.92392 46.25 6.25 46.25H41.25C42.5761 46.25 43.8479 45.7232 44.7855 44.7855C45.7232 43.8479 46.25 42.5761 46.25 41.25V6.25C46.25 4.92392 45.7232 3.65215 44.7855 2.71447C43.8479 1.77679 42.5761 1.25 41.25 1.25H6.25Z" fill="white"/>
</mask>
<g mask="url(#mask0_9_2)">
<path d="M46.25 48.75H-1.25V1.25H46.25V48.75Z" fill="#AD59D4"/>
<path d="M48.75 28.75H0V50H48.75V28.75Z" fill="#D8A353"/>
</g>
<mask id="mask1_9_2" style="mask-type:luminance" maskUnits="userSpaceOnUse" x="0" y="0" width="48" height="48">
<path d="M0 0H47.5V47.5H0V0Z" fill="white"/>
</mask>
<g mask="url(#mask1_9_2)">
<path d="M40 37.5C40 40.9525 32.725 43.75 23.75 43.75C14.775 43.75 7.5 40.9525 7.5 37.5C7.5 34.0475 14.775 31.25 23.75 31.25C32.725 31.25 40 34.0475 40 37.5Z" fill="#99B5B2"/>
<path d="M40 31.25H7.5V37.5H40V31.25Z" fill="#99B5B2"/>
<path d="M40 31.25C40 34.7025 32.725 37.5 23.75 37.5C14.775 37.5 7.5 34.7025 7.5 31.25C7.5 27.7975 14.775 25 23.75 25C32.725 25 40 27.7975 40 31.25Z" fill="white"/>
<path d="M37.5 31.25C37.5 34.0113 31.3437 36.25 23.75 36.25C16.1563 36.25 10 34.0113 10 31.25C10 28.4887 16.1563 26.25 23.75 26.25C31.3437 26.25 37.5 28.4887 37.5 31.25Z" fill="#CCDDDB"/>
</g>
<mask id="mask2_9_2" style="mask-type:luminance" maskUnits="userSpaceOnUse" x="10" y="26" width="28" height="11">
<path d="M10 31.25C10 34.0113 16.1563 36.25 23.75 36.25C31.3437 36.25 37.5 34.0113 37.5 31.25C37.5 28.4887 31.3437 26.25 23.75 26.25C16.1563 26.25 10 28.4887 10 31.25Z" fill="white"/>
</mask>
<g mask="url(#mask2_9_2)">
<path d="M37.5 33.75C37.5 36.5113 31.3437 38.75 23.75 38.75C16.1563 38.75 10 36.5113 10 33.75C10 30.9887 16.1563 28.75 23.75 28.75C31.3437 28.75 37.5 30.9887 37.5 33.75Z" fill="#3BC3B3"/>
</g>
<mask id="mask3_9_2" style="mask-type:luminance" maskUnits="userSpaceOnUse" x="0" y="0" width="48" height="48">
<path d="M0 0H47.5V47.5H0V0Z" fill="white"/>
</mask>
<g mask="url(#mask3_9_2)">
<path d="M27.5 33.75C27.5 34.4412 25.8212 35 23.75 35C21.6788 35 20 34.4412 20 33.75C20 33.0588 21.6788 32.5 23.75 32.5C25.8212 32.5 27.5 33.0588 27.5 33.75Z" fill="#99B5B2"/>
<path d="M27.5 31.25H20V33.75H27.5V31.25Z" fill="#99B5B2"/>
<path d="M27.5 31.25C27.5 31.9412 25.8212 32.5 23.75 32.5C21.6788 32.5 20 31.9412 20 31.25C20 30.5588 21.6788 30 23.75 30C25.8212 30 27.5 30.5588 27.5 31.25Z" fill="#CCDDDB"/>
<path d="M29.375 8.125C27.3462 8.125 25.8762 8.75125 24.8275 9.66C24.2887 7.0425 22.3612 3.75 17.5 3.75C11.5675 3.75 10 8.65625 10 11.25V13.75C10 14.0815 10.1317 14.3995 10.3661 14.6339C10.6005 14.8683 10.9185 15 11.25 15C11.5815 15 11.8995 14.8683 12.1339 14.6339C12.3683 14.3995 12.5 14.0815 12.5 13.75V11.25C12.5 11.0462 12.5563 6.25 17.5 6.25C22.3162 6.25 22.4962 10.7437 22.5 11.25V13.97C21.6912 13.4513 20.66 13.125 19.375 13.125C15.2475 13.125 13.75 16.4887 13.75 18.75V20C13.75 20.3315 13.8817 20.6495 14.1161 20.8839C14.3505 21.1183 14.6685 21.25 15 21.25C15.3315 21.25 15.6495 21.1183 15.8839 20.8839C16.1183 20.6495 16.25 20.3315 16.25 20V18.7575C16.2562 18.235 16.44 15.625 19.375 15.625C22.31 15.625 22.4938 18.235 22.5 18.75V30C22.5 30.3315 22.6317 30.6495 22.8661 30.8839C23.1005 31.1183 23.4185 31.25 23.75 31.25C24.0815 31.25 24.3995 31.1183 24.6339 30.8839C24.8683 30.6495 25 30.3315 25 30V21.25C25 20.8325 25.1213 18.75 27.5 18.75C29.7825 18.75 29.99 20.6713 30 21.25V22.5C30 22.8315 30.1317 23.1495 30.3661 23.3839C30.6005 23.6183 30.9185 23.75 31.25 23.75C31.5815 23.75 31.8995 23.6183 32.1339 23.3839C32.3683 23.1495 32.5 22.8315 32.5 22.5V21.25C32.5 19.24 31.1687 16.25 27.5 16.25C26.4913 16.25 25.6763 16.4888 25 16.8575V15C25 14.5525 25.1237 10.625 29.375 10.625C33.5838 10.625 33.745 14.5575 33.75 15V17.5C33.75 17.8315 33.8817 18.1495 34.1161 18.3839C34.3505 18.6183 34.6685 18.75 35 18.75C35.3315 18.75 35.6495 18.6183 35.8839 18.3839C36.1183 18.1495 36.25 17.8315 36.25 17.5V15C36.25 12.6225 34.8137 8.125 29.375 8.125Z" fill="#5FE4D4"/>
</g>
</g>
<defs>
<clipPath id="clip0_9_2">
<rect width="47.5" height="47.5" fill="white"/>
</clipPath>
</defs>
</svg>
